<mxfile host="app.diagrams.net" modified="2022-07-13T13:50:18.116Z" agent="5.0 (Windows NT 10.0; WOW64) AppleWebKit/537.36 (KHTML, like Gecko) Chrome/103.0.0.0 Safari/537.36" etag="5GCSlnAJc6vtQbBkz1NK" version="20.0.4" type="github">
  <diagram id="Paf4SMglVJaHUU8k5451" name="Page-1">
    <mxGraphModel dx="2062" dy="1122" grid="1" gridSize="10" guides="1" tooltips="1" connect="1" arrows="1" fold="1" page="1" pageScale="1" pageWidth="827" pageHeight="1169" math="0" shadow="0">
      <root>
        <mxCell id="0" />
        <mxCell id="1" parent="0" />
        <mxCell id="VDNFKAa24KRTbSktk4pg-28" style="edgeStyle=orthogonalEdgeStyle;rounded=0;orthogonalLoop=1;jettySize=auto;html=1;" edge="1" parent="1" source="VDNFKAa24KRTbSktk4pg-10" target="VDNFKAa24KRTbSktk4pg-27">
          <mxGeometry relative="1" as="geometry" />
        </mxCell>
        <mxCell id="VDNFKAa24KRTbSktk4pg-10" value="Actor" style="shape=umlActor;verticalLabelPosition=bottom;verticalAlign=top;html=1;" vertex="1" parent="1">
          <mxGeometry x="110" y="30" width="30" height="60" as="geometry" />
        </mxCell>
        <mxCell id="VDNFKAa24KRTbSktk4pg-13" value="Лендинг" style="shape=umlFrame;whiteSpace=wrap;html=1;" vertex="1" parent="1">
          <mxGeometry x="270" y="180" width="410" height="310" as="geometry" />
        </mxCell>
        <mxCell id="VDNFKAa24KRTbSktk4pg-14" value="" style="ellipse;html=1;shape=endState;fillColor=#000000;strokeColor=#ff0000;" vertex="1" parent="1">
          <mxGeometry x="580" y="450" width="30" height="30" as="geometry" />
        </mxCell>
        <mxCell id="VDNFKAa24KRTbSktk4pg-19" value="" style="edgeStyle=orthogonalEdgeStyle;rounded=0;orthogonalLoop=1;jettySize=auto;html=1;" edge="1" parent="1" source="VDNFKAa24KRTbSktk4pg-15" target="VDNFKAa24KRTbSktk4pg-18">
          <mxGeometry relative="1" as="geometry" />
        </mxCell>
        <mxCell id="VDNFKAa24KRTbSktk4pg-15" value="Переход к форме" style="html=1;" vertex="1" parent="1">
          <mxGeometry x="350" y="230" width="110" height="50" as="geometry" />
        </mxCell>
        <mxCell id="VDNFKAa24KRTbSktk4pg-21" value="" style="edgeStyle=orthogonalEdgeStyle;rounded=0;orthogonalLoop=1;jettySize=auto;html=1;" edge="1" parent="1" source="VDNFKAa24KRTbSktk4pg-18" target="VDNFKAa24KRTbSktk4pg-20">
          <mxGeometry relative="1" as="geometry" />
        </mxCell>
        <mxCell id="VDNFKAa24KRTbSktk4pg-18" value="Регистрация" style="html=1;" vertex="1" parent="1">
          <mxGeometry x="540" y="230" width="110" height="50" as="geometry" />
        </mxCell>
        <mxCell id="VDNFKAa24KRTbSktk4pg-26" style="edgeStyle=orthogonalEdgeStyle;rounded=0;orthogonalLoop=1;jettySize=auto;html=1;entryX=0.5;entryY=0;entryDx=0;entryDy=0;" edge="1" parent="1" source="VDNFKAa24KRTbSktk4pg-20" target="VDNFKAa24KRTbSktk4pg-14">
          <mxGeometry relative="1" as="geometry" />
        </mxCell>
        <mxCell id="VDNFKAa24KRTbSktk4pg-20" value="Переход в &lt;br&gt;демокабинет" style="html=1;" vertex="1" parent="1">
          <mxGeometry x="540" y="360" width="110" height="50" as="geometry" />
        </mxCell>
        <mxCell id="VDNFKAa24KRTbSktk4pg-22" value="" style="ellipse;html=1;shape=startState;fillColor=#000000;strokeColor=#ff0000;" vertex="1" parent="1">
          <mxGeometry x="290" y="240" width="30" height="30" as="geometry" />
        </mxCell>
        <mxCell id="VDNFKAa24KRTbSktk4pg-23" value="" style="edgeStyle=orthogonalEdgeStyle;html=1;verticalAlign=bottom;endArrow=open;endSize=8;strokeColor=#ff0000;rounded=0;entryX=0;entryY=0.5;entryDx=0;entryDy=0;" edge="1" source="VDNFKAa24KRTbSktk4pg-22" parent="1" target="VDNFKAa24KRTbSktk4pg-15">
          <mxGeometry relative="1" as="geometry">
            <mxPoint x="305" y="380" as="targetPoint" />
          </mxGeometry>
        </mxCell>
        <mxCell id="VDNFKAa24KRTbSktk4pg-29" style="edgeStyle=orthogonalEdgeStyle;rounded=0;orthogonalLoop=1;jettySize=auto;html=1;entryX=0.085;entryY=0.006;entryDx=0;entryDy=0;entryPerimeter=0;" edge="1" parent="1" source="VDNFKAa24KRTbSktk4pg-27" target="VDNFKAa24KRTbSktk4pg-13">
          <mxGeometry relative="1" as="geometry" />
        </mxCell>
        <mxCell id="VDNFKAa24KRTbSktk4pg-27" value="Переход на лендинг" style="html=1;" vertex="1" parent="1">
          <mxGeometry x="210" y="30" width="120" height="60" as="geometry" />
        </mxCell>
        <mxCell id="VDNFKAa24KRTbSktk4pg-46" value="" style="edgeStyle=orthogonalEdgeStyle;rounded=0;orthogonalLoop=1;jettySize=auto;html=1;" edge="1" parent="1" source="VDNFKAa24KRTbSktk4pg-30" target="VDNFKAa24KRTbSktk4pg-45">
          <mxGeometry relative="1" as="geometry" />
        </mxCell>
        <mxCell id="VDNFKAa24KRTbSktk4pg-30" value="Демо кабинет" style="shape=umlFrame;whiteSpace=wrap;html=1;" vertex="1" parent="1">
          <mxGeometry x="380" y="530" width="270" height="310" as="geometry" />
        </mxCell>
        <mxCell id="VDNFKAa24KRTbSktk4pg-32" value="" style="edgeStyle=orthogonalEdgeStyle;rounded=0;orthogonalLoop=1;jettySize=auto;html=1;exitX=0.229;exitY=1;exitDx=0;exitDy=0;exitPerimeter=0;entryX=0.097;entryY=-0.025;entryDx=0;entryDy=0;entryPerimeter=0;" edge="1" parent="1" source="VDNFKAa24KRTbSktk4pg-13" target="VDNFKAa24KRTbSktk4pg-30">
          <mxGeometry relative="1" as="geometry">
            <mxPoint x="470" y="265" as="sourcePoint" />
            <mxPoint x="550" y="265" as="targetPoint" />
          </mxGeometry>
        </mxCell>
        <mxCell id="VDNFKAa24KRTbSktk4pg-34" value="" style="ellipse;html=1;shape=startState;fillColor=#000000;strokeColor=#ff0000;" vertex="1" parent="1">
          <mxGeometry x="390" y="585" width="30" height="30" as="geometry" />
        </mxCell>
        <mxCell id="VDNFKAa24KRTbSktk4pg-35" value="" style="edgeStyle=orthogonalEdgeStyle;html=1;verticalAlign=bottom;endArrow=open;endSize=8;strokeColor=#ff0000;rounded=0;entryX=0;entryY=0;entryDx=0;entryDy=15;entryPerimeter=0;" edge="1" source="VDNFKAa24KRTbSktk4pg-34" parent="1" target="VDNFKAa24KRTbSktk4pg-37">
          <mxGeometry relative="1" as="geometry">
            <mxPoint x="500" y="630" as="targetPoint" />
          </mxGeometry>
        </mxCell>
        <mxCell id="VDNFKAa24KRTbSktk4pg-40" style="edgeStyle=orthogonalEdgeStyle;rounded=0;orthogonalLoop=1;jettySize=auto;html=1;exitX=0;exitY=0;exitDx=0;exitDy=35;exitPerimeter=0;entryX=0;entryY=0;entryDx=0;entryDy=15;entryPerimeter=0;" edge="1" parent="1" source="VDNFKAa24KRTbSktk4pg-37" target="VDNFKAa24KRTbSktk4pg-48">
          <mxGeometry relative="1" as="geometry" />
        </mxCell>
        <mxCell id="VDNFKAa24KRTbSktk4pg-37" value="демо&#xa;модуль" style="shape=module;align=left;spacingLeft=20;align=center;verticalAlign=top;" vertex="1" parent="1">
          <mxGeometry x="510" y="585" width="100" height="50" as="geometry" />
        </mxCell>
        <mxCell id="VDNFKAa24KRTbSktk4pg-39" value="" style="ellipse;html=1;shape=endState;fillColor=#000000;strokeColor=#ff0000;" vertex="1" parent="1">
          <mxGeometry x="580" y="770" width="30" height="30" as="geometry" />
        </mxCell>
        <mxCell id="VDNFKAa24KRTbSktk4pg-43" style="edgeStyle=orthogonalEdgeStyle;rounded=0;orthogonalLoop=1;jettySize=auto;html=1;entryX=0;entryY=0.5;entryDx=0;entryDy=0;" edge="1" parent="1" source="VDNFKAa24KRTbSktk4pg-42" target="VDNFKAa24KRTbSktk4pg-39">
          <mxGeometry relative="1" as="geometry" />
        </mxCell>
        <mxCell id="VDNFKAa24KRTbSktk4pg-42" value="Получить доступ к&lt;br&gt;полноценному ЛК" style="html=1;" vertex="1" parent="1">
          <mxGeometry x="440" y="760" width="110" height="50" as="geometry" />
        </mxCell>
        <mxCell id="VDNFKAa24KRTbSktk4pg-45" value="" style="shape=umlFrame;whiteSpace=wrap;html=1;" vertex="1" parent="1">
          <mxGeometry x="70" y="910" width="250" height="220" as="geometry" />
        </mxCell>
        <mxCell id="VDNFKAa24KRTbSktk4pg-48" value="Покупка&#xa;курса" style="shape=module;align=left;spacingLeft=20;align=center;verticalAlign=top;" vertex="1" parent="1">
          <mxGeometry x="510" y="660" width="100" height="50" as="geometry" />
        </mxCell>
        <mxCell id="VDNFKAa24KRTbSktk4pg-49" style="edgeStyle=orthogonalEdgeStyle;rounded=0;orthogonalLoop=1;jettySize=auto;html=1;entryX=0.5;entryY=0;entryDx=0;entryDy=0;exitX=0;exitY=0;exitDx=0;exitDy=35;exitPerimeter=0;" edge="1" parent="1" source="VDNFKAa24KRTbSktk4pg-48" target="VDNFKAa24KRTbSktk4pg-42">
          <mxGeometry relative="1" as="geometry">
            <mxPoint x="520" y="795" as="sourcePoint" />
            <mxPoint x="590" y="795" as="targetPoint" />
            <Array as="points">
              <mxPoint x="495" y="695" />
            </Array>
          </mxGeometry>
        </mxCell>
      </root>
    </mxGraphModel>
  </diagram>
</mxfile>
